<svg xmlns="http://www.w3.org/2000/svg" width="500" height="500" viewBox="0 0 500 500" version="1.1"><path d="M 202.469 80.250 L 196.500 86.500 202.750 80.531 C 206.188 77.249, 209 74.436, 209 74.281 C 209 73.542, 208.013 74.444, 202.469 80.250 M 163.437 99.250 L 160.500 102.500 163.750 99.563 C 165.537 97.948, 167 96.485, 167 96.313 C 167 95.540, 166.175 96.221, 163.437 99.250 M 164.378 173 C 164.378 179.325, 164.541 181.912, 164.739 178.750 C 164.937 175.588, 164.937 170.412, 164.739 167.250 C 164.541 164.088, 164.378 166.675, 164.378 173 M 116.232 189 C 116.232 190.925, 116.438 191.713, 116.689 190.750 C 116.941 189.787, 116.941 188.213, 116.689 187.250 C 116.438 186.287, 116.232 187.075, 116.232 189 M 115.374 207.500 C 115.376 213.550, 115.541 215.896, 115.740 212.713 C 115.939 209.531, 115.937 204.581, 115.736 201.713 C 115.535 198.846, 115.372 201.450, 115.374 207.500 M 116.232 226 C 116.232 227.925, 116.438 228.713, 116.689 227.750 C 116.941 226.787, 116.941 225.213, 116.689 224.250 C 116.438 223.287, 116.232 224.075, 116.232 226 M 388.473 267.250 L 381.500 274.500 388.055 268.222 C 391.661 264.769, 394.923 262.256, 395.305 262.639 C 395.687 263.021, 396 262.583, 396 261.667 C 396 260.750, 395.875 260, 395.723 260 C 395.571 260, 392.308 263.262, 388.473 267.250 M 206 269.313 C 206 269.485, 207.463 270.948, 209.250 272.563 L 212.500 275.500 209.563 272.250 C 206.825 269.221, 206 268.540, 206 269.313 M 131.500 275 C 132.353 276.650, 133.276 278, 133.551 278 C 133.826 278, 133.353 276.650, 132.500 275 C 131.647 273.350, 130.724 272, 130.449 272 C 130.174 272, 130.647 273.350, 131.500 275 M 355 291 C 353.075 292.054, 351.860 292.935, 352.300 292.958 C 353.359 293.014, 359 290.081, 359 289.474 C 359 288.820, 358.941 288.842, 355 291 M 342.500 296.535 C 339.999 297.740, 339.916 297.878, 342 297.369 C 344.834 296.677, 348.018 295.053, 346.500 295.076 C 345.950 295.084, 344.150 295.740, 342.500 296.535 M 370.437 302.250 L 367.500 305.500 370.750 302.563 C 373.779 299.825, 374.460 299, 373.687 299 C 373.515 299, 372.052 300.462, 370.437 302.250 M 157.500 310 C 161.874 314.400, 165.678 318, 165.953 318 C 166.228 318, 162.874 314.400, 158.500 310 C 154.126 305.600, 150.322 302, 150.047 302 C 149.772 302, 153.126 305.600, 157.500 310 M 281.250 304.689 C 282.212 304.941, 283.788 304.941, 284.750 304.689 C 285.712 304.438, 284.925 304.232, 283 304.232 C 281.075 304.232, 280.288 304.438, 281.250 304.689 M 159.750 340.740 C 163.188 340.936, 168.813 340.936, 172.250 340.740 C 175.688 340.545, 172.875 340.385, 166 340.385 C 159.125 340.385, 156.313 340.545, 159.750 340.740 M 339.789 340.741 C 343.248 340.937, 348.648 340.936, 351.789 340.738 C 354.930 340.540, 352.100 340.380, 345.500 340.382 C 338.900 340.384, 336.330 340.546, 339.789 340.741 M 133.750 341.732 C 136.088 341.943, 139.912 341.943, 142.250 341.732 C 144.588 341.522, 142.675 341.349, 138 341.349 C 133.325 341.349, 131.412 341.522, 133.750 341.732 M 370.250 341.735 C 372.863 341.941, 377.137 341.941, 379.750 341.735 C 382.363 341.529, 380.225 341.360, 375 341.360 C 369.775 341.360, 367.637 341.529, 370.250 341.735 M 111.010 342.892 C 109.250 343.382, 108.897 343.818, 109.804 344.379 C 110.510 344.815, 111.646 344.709, 112.328 344.142 C 113.011 343.576, 116.254 342.947, 119.535 342.745 L 125.500 342.378 119.500 342.289 C 116.200 342.240, 112.380 342.511, 111.010 342.892 M 391.264 342.718 C 392.784 342.947, 395.034 342.941, 396.264 342.704 C 397.494 342.467, 396.250 342.279, 393.500 342.286 C 390.750 342.294, 389.744 342.488, 391.264 342.718 M 114.250 345.689 C 115.213 345.941, 116.787 345.941, 117.750 345.689 C 118.713 345.438, 117.925 345.232, 116 345.232 C 114.075 345.232, 113.287 345.438, 114.250 345.689 M 124.250 346.728 C 126.313 346.944, 129.688 346.944, 131.750 346.728 C 133.813 346.513, 132.125 346.336, 128 346.336 C 123.875 346.336, 122.188 346.513, 124.250 346.728 M 378.728 346.722 C 380.503 346.943, 383.653 346.946, 385.728 346.730 C 387.802 346.513, 386.350 346.333, 382.500 346.328 C 378.650 346.324, 376.952 346.501, 378.728 346.722 M 144.250 347.728 C 146.313 347.944, 149.688 347.944, 151.750 347.728 C 153.813 347.513, 152.125 347.336, 148 347.336 C 143.875 347.336, 142.188 347.513, 144.250 347.728 M 351.750 347.732 C 354.087 347.943, 357.913 347.943, 360.250 347.732 C 362.587 347.522, 360.675 347.349, 356 347.349 C 351.325 347.349, 349.413 347.522, 351.750 347.732 M 161.250 348.689 C 162.213 348.941, 163.787 348.941, 164.750 348.689 C 165.713 348.438, 164.925 348.232, 163 348.232 C 161.075 348.232, 160.287 348.438, 161.250 348.689 M 330.250 348.716 C 331.762 348.945, 334.238 348.945, 335.750 348.716 C 337.262 348.487, 336.025 348.300, 333 348.300 C 329.975 348.300, 328.738 348.487, 330.250 348.716 M 319.496 350.007 C 318.801 351.131, 321.730 352.604, 322.710 351.624 C 323.053 351.281, 322.471 350.955, 321.417 350.900 C 319.924 350.823, 320.053 350.624, 322 350 C 324.327 349.255, 324.349 349.192, 322.309 349.100 C 321.104 349.045, 319.838 349.453, 319.496 350.007 M 334.762 353.707 C 336.006 353.946, 337.806 353.937, 338.762 353.687 C 339.718 353.437, 338.700 353.241, 336.500 353.252 C 334.300 353.263, 333.518 353.468, 334.762 353.707 M 345.250 354.689 C 346.212 354.941, 347.788 354.941, 348.750 354.689 C 349.712 354.438, 348.925 354.232, 347 354.232 C 345.075 354.232, 344.288 354.438, 345.250 354.689 M 357.250 355.689 C 358.212 355.941, 359.788 355.941, 360.750 355.689 C 361.712 355.438, 360.925 355.232, 359 355.232 C 357.075 355.232, 356.288 355.438, 357.250 355.689 M 144.762 359.707 C 146.006 359.946, 147.806 359.937, 148.762 359.687 C 149.718 359.437, 148.700 359.241, 146.500 359.252 C 144.300 359.263, 143.518 359.468, 144.762 359.707 M 158.728 360.722 C 160.503 360.943, 163.653 360.946, 165.728 360.730 C 167.802 360.513, 166.350 360.333, 162.500 360.328 C 158.650 360.324, 156.952 360.501, 158.728 360.722 M 351.250 360.716 C 352.762 360.945, 355.238 360.945, 356.750 360.716 C 358.262 360.487, 357.025 360.300, 354 360.300 C 350.975 360.300, 349.738 360.487, 351.250 360.716 M 182.750 361.732 C 185.088 361.943, 188.912 361.943, 191.250 361.732 C 193.588 361.522, 191.675 361.349, 187 361.349 C 182.325 361.349, 180.412 361.522, 182.750 361.732 M 329.250 361.728 C 331.313 361.944, 334.688 361.944, 336.750 361.728 C 338.813 361.513, 337.125 361.336, 333 361.336 C 328.875 361.336, 327.188 361.513, 329.250 361.728 M 205.250 362.689 C 206.213 362.941, 207.787 362.941, 208.750 362.689 C 209.713 362.438, 208.925 362.232, 207 362.232 C 205.075 362.232, 204.287 362.438, 205.250 362.689 M 315.250 362.689 C 316.212 362.941, 317.788 362.941, 318.750 362.689 C 319.712 362.438, 318.925 362.232, 317 362.232 C 315.075 362.232, 314.288 362.438, 315.250 362.689 M 244.250 366.742 C 247.963 366.934, 254.037 366.934, 257.750 366.742 C 261.462 366.549, 258.425 366.392, 251 366.392 C 243.575 366.392, 240.537 366.549, 244.250 366.742 M 194.762 368.707 C 196.006 368.946, 197.806 368.937, 198.762 368.687 C 199.718 368.437, 198.700 368.241, 196.500 368.252 C 194.300 368.263, 193.518 368.468, 194.762 368.707 M 182.750 369.706 C 183.988 369.944, 186.012 369.944, 187.250 369.706 C 188.488 369.467, 187.475 369.272, 185 369.272 C 182.525 369.272, 181.512 369.467, 182.750 369.706 M 171.762 370.707 C 173.006 370.946, 174.806 370.937, 175.762 370.687 C 176.718 370.437, 175.700 370.241, 173.500 370.252 C 171.300 370.263, 170.518 370.468, 171.762 370.707 M 323.750 371.220 C 324.988 371.817, 326 372.687, 326 373.153 C 326 373.619, 324.988 374.052, 323.750 374.116 C 321.898 374.211, 321.828 374.317, 323.356 374.710 C 326.330 375.475, 327.891 373.154, 325.559 371.433 C 324.491 370.645, 323.141 370.030, 322.559 370.068 C 321.976 370.105, 322.512 370.624, 323.750 371.220 M 162.122 371.904 C 160.403 372.992, 161.536 375.024, 163.809 374.930 C 165.179 374.873, 165.120 374.703, 163.500 374.037 C 161.288 373.127, 162.272 372.466, 167 371.685 C 169.215 371.319, 169.158 371.259, 166.500 371.151 C 164.850 371.085, 162.880 371.423, 162.122 371.904 M 350.784 371.738 C 353.689 371.941, 358.189 371.939, 360.784 371.734 C 363.378 371.528, 361 371.363, 355.500 371.365 C 350 371.368, 347.878 371.536, 350.784 371.738 M 350.789 374.741 C 354.248 374.937, 359.648 374.936, 362.789 374.738 C 365.930 374.540, 363.100 374.380, 356.500 374.382 C 349.900 374.384, 347.330 374.546, 350.789 374.741 M 312.264 375.718 C 313.784 375.947, 316.034 375.941, 317.264 375.704 C 318.494 375.467, 317.250 375.279, 314.500 375.286 C 311.750 375.294, 310.744 375.488, 312.264 375.718 M 178.750 376.732 C 181.088 376.943, 184.912 376.943, 187.250 376.732 C 189.588 376.522, 187.675 376.349, 183 376.349 C 178.325 376.349, 176.412 376.522, 178.750 376.732 M 284.280 376.736 C 286.909 376.943, 290.959 376.940, 293.280 376.731 C 295.601 376.521, 293.450 376.352, 288.500 376.355 C 283.550 376.358, 281.651 376.530, 284.280 376.736 M 212.750 377.743 C 216.738 377.932, 223.262 377.932, 227.250 377.743 C 231.238 377.553, 227.975 377.397, 220 377.397 C 212.025 377.397, 208.762 377.553, 212.750 377.743 M 266.750 377.706 C 267.988 377.944, 270.012 377.944, 271.250 377.706 C 272.488 377.467, 271.475 377.272, 269 377.272 C 266.525 377.272, 265.512 377.467, 266.750 377.706 M 241.924 378.737 C 243.860 379.080, 244.061 379.367, 242.924 380.159 C 241.888 380.882, 241.861 381.057, 242.825 380.801 C 244.993 380.227, 244.244 378.508, 241.781 378.404 C 239.711 378.316, 239.724 378.347, 241.924 378.737 M 277.750 382.723 C 279.538 382.945, 282.462 382.945, 284.250 382.723 C 286.038 382.502, 284.575 382.320, 281 382.320 C 277.425 382.320, 275.962 382.502, 277.750 382.723 M 220.762 383.707 C 222.006 383.946, 223.806 383.937, 224.762 383.687 C 225.718 383.437, 224.700 383.241, 222.500 383.252 C 220.300 383.263, 219.518 383.468, 220.762 383.707 M 295.750 383.723 C 297.538 383.945, 300.462 383.945, 302.250 383.723 C 304.038 383.502, 302.575 383.320, 299 383.320 C 295.425 383.320, 293.962 383.502, 295.750 383.723 M 207.750 384.706 C 208.988 384.944, 211.012 384.944, 212.250 384.706 C 213.488 384.467, 212.475 384.272, 210 384.272 C 207.525 384.272, 206.512 384.467, 207.750 384.706 M 313.264 384.718 C 314.784 384.947, 317.034 384.941, 318.264 384.704 C 319.494 384.467, 318.250 384.279, 315.500 384.286 C 312.750 384.294, 311.744 384.488, 313.264 384.718 M 195.264 385.718 C 196.784 385.947, 199.034 385.941, 200.264 385.704 C 201.494 385.467, 200.250 385.279, 197.500 385.286 C 194.750 385.294, 193.744 385.488, 195.264 385.718 M 181.729 387.092 C 179.881 388.168, 180.250 390.011, 182.309 389.985 C 183.049 389.975, 182.952 389.623, 182.052 389.053 C 180.506 388.075, 182.158 387.465, 188.500 386.674 C 190.890 386.376, 190.687 386.275, 187.500 386.180 C 185.300 386.115, 182.703 386.525, 181.729 387.092 M 192.750 391.723 C 194.537 391.945, 197.463 391.945, 199.250 391.723 C 201.037 391.502, 199.575 391.320, 196 391.320 C 192.425 391.320, 190.963 391.502, 192.750 391.723 M 318.762 391.707 C 320.006 391.946, 321.806 391.937, 322.762 391.687 C 323.718 391.437, 322.700 391.241, 320.500 391.252 C 318.300 391.263, 317.518 391.468, 318.762 391.707 M 212.250 392.735 C 214.863 392.941, 219.137 392.941, 221.750 392.735 C 224.363 392.529, 222.225 392.360, 217 392.360 C 211.775 392.360, 209.637 392.529, 212.250 392.735 M 305.768 392.725 C 307.565 392.947, 310.265 392.943, 311.768 392.715 C 313.271 392.486, 311.800 392.304, 308.500 392.310 C 305.200 392.315, 303.971 392.502, 305.768 392.725 M 231.280 393.736 C 233.909 393.943, 237.959 393.940, 240.280 393.731 C 242.601 393.521, 240.450 393.352, 235.500 393.355 C 230.550 393.358, 228.651 393.530, 231.280 393.736 M 292.768 393.725 C 294.565 393.947, 297.265 393.943, 298.768 393.715 C 300.271 393.486, 298.800 393.304, 295.500 393.310 C 292.200 393.315, 290.971 393.502, 292.768 393.725 M 248.250 394.689 C 249.213 394.941, 250.787 394.941, 251.750 394.689 C 252.713 394.438, 251.925 394.232, 250 394.232 C 248.075 394.232, 247.287 394.438, 248.250 394.689 M 255.878 395.904 C 256.636 396.384, 256.947 397.277, 256.569 397.888 C 255.834 399.078, 257.228 399.439, 258.325 398.342 C 259.160 397.507, 257.124 394.995, 255.628 395.015 C 254.976 395.024, 255.081 395.399, 255.878 395.904 M 168.500 396.878 C 162.249 398.215, 165.734 399.506, 176.345 399.785 C 184.813 400.007, 187.096 399.789, 186.763 398.788 C 186.015 396.546, 175.296 395.425, 168.500 396.878 M 170.750 398.737 C 173.637 398.939, 178.363 398.939, 181.250 398.737 C 184.137 398.535, 181.775 398.370, 176 398.370 C 170.225 398.370, 167.863 398.535, 170.750 398.737 M 242.250 400.716 C 243.762 400.945, 246.238 400.945, 247.750 400.716 C 249.262 400.487, 248.025 400.300, 245 400.300 C 241.975 400.300, 240.738 400.487, 242.250 400.716 M 286.083 400.361 C 286.313 400.559, 288.525 400.989, 291 401.317 C 294.005 401.714, 294.835 401.617, 293.500 401.026 C 291.590 400.180, 285.215 399.609, 286.083 400.361 M 225.776 401.733 C 228.128 401.945, 231.728 401.942, 233.776 401.727 C 235.824 401.512, 233.900 401.339, 229.500 401.343 C 225.100 401.346, 223.424 401.522, 225.776 401.733 M 214.441 403.433 C 211.836 405.356, 213.488 406.978, 219.170 408.076 C 224.253 409.059, 282.199 409.130, 289.500 408.162 C 292.250 407.798, 280.194 407.664, 262.709 407.864 C 245.223 408.064, 227.652 407.921, 223.660 407.547 C 213.224 406.569, 210.981 404.696, 218.199 402.986 C 221.070 402.307, 221.167 402.191, 218.941 402.102 C 217.534 402.046, 215.509 402.645, 214.441 403.433 M 296.805 403.169 C 297.907 404.578, 297.829 405.003, 296.305 405.889 C 295.312 406.467, 295.007 406.953, 295.628 406.970 C 296.248 406.986, 297.266 406.385, 297.890 405.633 C 298.761 404.583, 298.615 403.944, 297.262 402.883 C 295.681 401.642, 295.634 401.671, 296.805 403.169 M 224 414.045 C 211.746 414.767, 206 416, 206 417.908 C 206 419.298, 208.282 419.801, 219.856 420.962 C 237.886 422.770, 262.841 422.086, 274.750 419.458 C 278.086 418.722, 277.476 416.350, 273.750 415.570 C 270.250 414.837, 243.121 412.972, 239 413.181 C 237.625 413.251, 230.875 413.639, 224 414.045 M 223.784 415.738 C 226.689 415.941, 231.189 415.939, 233.784 415.734 C 236.378 415.528, 234 415.363, 228.500 415.365 C 223 415.368, 220.878 415.536, 223.784 415.738 M 246.397 415.730 C 246.798 416.132, 251.486 416.526, 256.813 416.606 C 262.141 416.686, 267.400 416.839, 268.500 416.946 L 270.500 417.141 268.500 417.989 C 266.881 418.676, 267.103 418.805, 269.665 418.669 C 274.064 418.434, 273.329 416.640, 268.500 415.824 C 263.033 414.900, 245.492 414.826, 246.397 415.730 M 262.500 418 C 260.741 418.756, 260.838 418.868, 263.309 418.930 C 264.941 418.971, 265.859 418.581, 265.500 418 C 265.160 417.450, 264.796 417.032, 264.691 417.070 C 264.586 417.109, 263.600 417.527, 262.500 418 M 246.275 426.916 C 239.525 427.736, 237.565 429.482, 241.587 431.091 C 244.925 432.427, 269.990 432.815, 277.250 431.644 C 283.627 430.615, 283.487 428.485, 276.951 427.083 C 271.617 425.939, 255.061 425.849, 246.275 426.916 M 234.496 439.007 C 233.505 440.610, 236.925 441.407, 245 441.455 C 253.422 441.506, 257.416 440.507, 254.972 438.962 C 252.978 437.701, 235.279 437.740, 234.496 439.007" stroke="none" fill="#30628d" fill-rule="evenodd"/><path d="M 391.437 265.234 C 389.822 267.013, 389.437 267.687, 390.581 266.732 C 391.726 265.777, 392.963 265.222, 393.331 265.498 C 393.699 265.774, 393.779 265.704, 393.509 265.342 C 393.238 264.980, 393.519 264.080, 394.131 263.342 C 396.387 260.623, 394.280 262.104, 391.437 265.234 M 202.500 267 C 204.648 269.200, 206.631 271, 206.906 271 C 207.181 271, 205.648 269.200, 203.500 267 C 201.352 264.800, 199.369 263, 199.094 263 C 198.819 263, 200.352 264.800, 202.500 267 M 362.453 310.250 L 358.500 314.500 362.750 310.547 C 366.702 306.871, 367.460 306, 366.703 306 C 366.540 306, 364.627 307.913, 362.453 310.250 M 182.250 340.716 C 183.762 340.945, 186.238 340.945, 187.750 340.716 C 189.262 340.487, 188.025 340.300, 185 340.300 C 181.975 340.300, 180.738 340.487, 182.250 340.716 M 326.250 340.689 C 327.212 340.941, 328.788 340.941, 329.750 340.689 C 330.712 340.438, 329.925 340.232, 328 340.232 C 326.075 340.232, 325.288 340.438, 326.250 340.689 M 153.728 341.722 C 155.503 341.943, 158.653 341.946, 160.728 341.730 C 162.802 341.513, 161.350 341.333, 157.500 341.328 C 153.650 341.324, 151.952 341.501, 153.728 341.722 M 355.768 341.725 C 357.565 341.947, 360.265 341.943, 361.768 341.715 C 363.271 341.486, 361.800 341.304, 358.500 341.310 C 355.200 341.315, 353.971 341.502, 355.768 341.725 M 122.271 342.897 C 114.690 343.661, 111.181 345.064, 117.070 344.976 C 118.956 344.948, 127.028 345.387, 135.006 345.952 C 142.984 346.517, 151.534 346.623, 154.006 346.188 C 158.457 345.405, 158.476 345.384, 156.012 344.036 C 153.099 342.442, 133.383 341.776, 122.271 342.897 M 378.500 342.941 C 380.191 343.717, 379.958 343.881, 377 344 C 370.696 344.253, 376.807 345.861, 384 345.842 C 392.734 345.819, 401.150 344.626, 398.500 343.788 C 395.109 342.715, 376.271 341.917, 378.500 342.941 M 361.250 346.728 C 363.313 346.944, 366.688 346.944, 368.750 346.728 C 370.813 346.513, 369.125 346.336, 365 346.336 C 360.875 346.336, 359.188 346.513, 361.250 346.728 M 158.250 347.689 C 159.213 347.941, 160.787 347.941, 161.750 347.689 C 162.713 347.438, 161.925 347.232, 160 347.232 C 158.075 347.232, 157.287 347.438, 158.250 347.689 M 338.264 347.718 C 339.784 347.947, 342.034 347.941, 343.264 347.704 C 344.494 347.467, 343.250 347.279, 340.500 347.286 C 337.750 347.294, 336.744 347.488, 338.264 347.718 M 166.876 352.457 C 166.657 352.676, 162.208 353.565, 156.989 354.433 C 151.770 355.300, 145.938 356.272, 144.029 356.592 C 136.975 357.774, 143.760 358.937, 164.256 360.059 C 175.560 360.677, 185.639 360.969, 186.654 360.708 C 187.669 360.446, 185.414 360.180, 181.643 360.116 C 175.912 360.019, 174.883 359.747, 175.376 358.462 C 175.734 357.529, 175.285 356.679, 174.233 356.299 C 173.280 355.956, 171.324 354.861, 169.887 353.867 C 168.450 352.873, 167.095 352.238, 166.876 352.457 M 349.250 355.689 C 350.212 355.941, 351.788 355.941, 352.750 355.689 C 353.712 355.438, 352.925 355.232, 351 355.232 C 349.075 355.232, 348.288 355.438, 349.250 355.689 M 356.250 356.681 C 352.580 357.184, 351.992 358.545, 355.029 359.509 C 357.616 360.330, 369.851 359.050, 370.573 357.882 C 370.873 357.397, 370.079 356.995, 368.809 356.989 C 367.539 356.983, 364.925 356.811, 363 356.606 C 361.075 356.402, 358.038 356.436, 356.250 356.681 M 335.750 360.723 C 337.538 360.945, 340.462 360.945, 342.250 360.723 C 344.038 360.502, 342.575 360.320, 339 360.320 C 335.425 360.320, 333.962 360.502, 335.750 360.723 M 199.750 361.706 C 200.988 361.944, 203.012 361.944, 204.250 361.706 C 205.488 361.467, 204.475 361.272, 202 361.272 C 199.525 361.272, 198.512 361.467, 199.750 361.706 M 319.250 361.689 C 320.212 361.941, 321.788 361.941, 322.750 361.689 C 323.712 361.438, 322.925 361.232, 321 361.232 C 319.075 361.232, 318.288 361.438, 319.250 361.689 M 188 369.663 C 174.190 371.017, 164.396 372.255, 163.598 372.749 C 161.417 374.097, 168.441 375.101, 186.395 376.008 C 206.670 377.032, 231.654 377.321, 230.855 376.521 C 230.591 376.258, 226.671 375.914, 222.142 375.757 C 216.512 375.561, 213.642 375.039, 213.064 374.104 C 212.469 373.141, 211.078 372.916, 208.360 373.345 C 205.647 373.772, 205.095 373.683, 206.500 373.047 C 208.292 372.235, 208.312 372.133, 206.691 372.070 C 205.696 372.032, 205.122 371.611, 205.416 371.136 C 205.709 370.661, 203.598 369.990, 200.725 369.645 C 195.504 369.018, 194.570 369.019, 188 369.663 M 207.500 371 C 207.840 371.550, 208.740 372, 209.500 372 C 210.260 372, 211.160 371.550, 211.500 371 C 211.852 370.431, 210.991 370, 209.500 370 C 208.009 370, 207.148 370.431, 207.500 371 M 245.250 370.739 C 248.412 370.937, 253.588 370.937, 256.750 370.739 C 259.913 370.541, 257.325 370.378, 251 370.378 C 244.675 370.378, 242.088 370.541, 245.250 370.739 M 319 371.081 C 317.845 371.889, 318.075 371.986, 320 371.500 C 321.925 371.014, 322.155 371.111, 321 371.919 C 320.175 372.497, 317.925 373.008, 316 373.055 C 309.369 373.217, 308.440 374.627, 314.847 374.803 C 318.417 374.902, 321 374.551, 321 373.967 C 321 373.394, 322.075 373.232, 323.500 373.589 C 325.188 374.013, 326 373.802, 326 372.942 C 326 372.240, 325.721 371.945, 325.381 372.286 C 325.040 372.626, 324.108 372.251, 323.310 371.452 C 321.592 369.735, 320.996 369.684, 319 371.081 M 344 373 C 342.989 373.653, 346.742 373.969, 355.500 373.969 C 364.258 373.969, 368.011 373.653, 367 373 C 366.175 372.467, 361 372.031, 355.500 372.031 C 350 372.031, 344.825 372.467, 344 373 M 293.280 375.736 C 295.909 375.943, 299.959 375.940, 302.280 375.731 C 304.601 375.521, 302.450 375.352, 297.500 375.355 C 292.550 375.358, 290.651 375.530, 293.280 375.736 M 268.768 376.725 C 270.565 376.947, 273.265 376.943, 274.768 376.715 C 276.271 376.486, 274.800 376.304, 271.500 376.310 C 268.200 376.315, 266.971 376.502, 268.768 376.725 M 245.500 378 C 243.832 378.717, 243.785 378.871, 245.219 378.930 C 246.415 378.979, 246.739 379.517, 246.285 380.699 C 245.926 381.634, 245.469 381.907, 245.269 381.306 C 244.839 380.017, 241 380.800, 241 382.176 C 241 382.694, 240.598 382.870, 240.107 382.566 C 239.616 382.262, 235.678 382.449, 231.357 382.981 C 227.036 383.512, 215.011 384.687, 204.636 385.591 C 194.261 386.494, 184.586 387.557, 183.136 387.952 C 178.801 389.134, 193.816 390.824, 219 391.989 C 231.375 392.561, 243.975 393.283, 247 393.593 C 266.260 395.569, 260.999 400.435, 238.008 401.908 L 225.500 402.710 238 402.870 C 247.190 402.988, 250.103 403.314, 249 404.102 C 247.795 404.963, 247.942 405.077, 249.750 404.680 C 250.988 404.409, 252 404.575, 252 405.048 C 252 405.862, 249.348 406.501, 242.500 407.339 C 240.850 407.540, 243.775 407.696, 249 407.685 C 254.225 407.674, 257.150 407.383, 255.500 407.038 L 252.500 406.411 256.308 405.759 C 260.821 404.986, 263.933 405.774, 261.834 407.158 C 261.030 407.688, 264.456 407.958, 270.461 407.839 C 275.939 407.730, 279.877 407.459, 279.211 407.237 C 278.545 407.015, 278 406.373, 278 405.810 C 278 405.247, 278.679 405.047, 279.509 405.365 C 280.338 405.683, 282.236 405.481, 283.725 404.915 C 285.952 404.068, 286.172 403.701, 284.966 402.848 C 283.832 402.046, 283.953 401.979, 285.500 402.550 C 286.600 402.957, 288.254 403.320, 289.177 403.359 C 290.099 403.397, 290.666 403.731, 290.438 404.101 C 290.209 404.470, 290.918 405.007, 292.013 405.293 C 293.215 405.607, 293.754 405.410, 293.373 404.795 C 293.027 404.235, 293.302 403.432, 293.983 403.010 C 294.707 402.563, 292.395 401.752, 288.433 401.062 C 279.904 399.576, 277.440 398.380, 279.012 396.485 C 280.489 394.705, 288.098 393.262, 300 392.505 C 334.646 390.301, 339.836 387.091, 312.126 385.005 C 282.903 382.805, 267.134 382.011, 265.458 382.655 C 264.142 383.160, 263.886 382.994, 264.485 382.025 C 265.103 381.025, 264.655 380.833, 262.614 381.223 C 261.138 381.505, 260.156 381.511, 260.430 381.236 C 261.426 380.241, 258.894 376.947, 257.700 377.685 C 257.041 378.093, 255.308 378.301, 253.850 378.148 C 252.391 377.995, 250.914 378.330, 250.567 378.891 C 250.220 379.453, 249.278 379.660, 248.474 379.352 C 247.669 379.043, 247.260 378.388, 247.565 377.895 C 248.206 376.857, 248.153 376.860, 245.500 378 M 284.762 406.707 C 286.006 406.946, 287.806 406.937, 288.762 406.687 C 289.718 406.437, 288.700 406.241, 286.500 406.252 C 284.300 406.263, 283.518 406.468, 284.762 406.707" stroke="none" fill="#4986b3" fill-rule="evenodd"/><path d="M 207 73 C 206.175 73.533, 205.931 73.976, 206.458 73.985 C 206.985 73.993, 205.411 76.138, 202.961 78.750 C 199.044 82.926, 199.200 82.839, 204.253 78.034 C 207.414 75.028, 210 72.440, 210 72.284 C 210 71.695, 208.445 72.066, 207 73 M 158 105.500 C 153.903 109.625, 150.775 113, 151.050 113 C 151.325 113, 154.903 109.625, 159 105.500 C 163.097 101.375, 166.225 98, 165.950 98 C 165.675 98, 162.097 101.375, 158 105.500 M 118.455 180.455 C 118.072 183.005, 118.005 185.338, 118.305 185.638 C 118.605 185.938, 119.163 184.096, 119.545 181.545 C 119.928 178.995, 119.995 176.662, 119.695 176.362 C 119.395 176.062, 118.837 177.904, 118.455 180.455 M 116.099 206.083 C 116.153 212.363, 116.543 219.975, 116.965 223 C 117.405 226.153, 117.516 221.460, 117.227 212 C 116.949 202.925, 116.560 195.313, 116.361 195.083 C 116.163 194.854, 116.045 199.804, 116.099 206.083 M 118.218 231 C 118.228 232.375, 118.580 234.850, 119 236.500 L 119.763 239.500 119.782 236.500 C 119.792 234.850, 119.440 232.375, 119 231 L 118.199 228.500 118.218 231 M 122.466 250.047 C 124.798 257.888, 131.717 273.408, 136.415 281.336 C 149.607 303.594, 168.229 321.470, 192.317 334.999 C 196.028 337.084, 197.787 338.613, 197.175 339.225 C 196.389 340.011, 178.057 341.193, 153 342.072 L 148.500 342.230 152.301 342.966 C 157.763 344.023, 159.384 345.962, 154.950 346.133 C 153.052 346.206, 154.975 346.634, 159.223 347.083 C 163.470 347.533, 167.931 348.428, 169.136 349.073 C 171.285 350.223, 171.291 350.276, 169.407 351.873 C 168.352 352.768, 167.648 353.418, 167.843 353.318 C 168.038 353.217, 169.927 354.037, 172.041 355.138 C 174.550 356.446, 175.693 357.637, 175.335 358.571 C 174.926 359.635, 175.644 360.001, 178.143 360.004 C 186.816 360.013, 213.175 362.116, 215.448 362.980 C 220.848 365.033, 218.491 366.427, 206.085 368.517 C 200.591 369.443, 199.550 369.823, 202.309 369.897 C 204.572 369.958, 205.867 370.406, 205.500 371 C 205.160 371.550, 205.696 372.032, 206.691 372.070 C 208.312 372.133, 208.292 372.235, 206.500 373.047 C 205.095 373.683, 205.647 373.772, 208.360 373.345 C 211.083 372.915, 212.469 373.140, 213.067 374.109 C 213.601 374.972, 216.064 375.556, 219.708 375.683 C 222.893 375.795, 230.199 376.335, 235.941 376.884 C 241.684 377.433, 246.816 377.614, 247.346 377.286 C 247.876 376.959, 248.017 377.163, 247.660 377.741 C 247.303 378.318, 247.669 379.043, 248.474 379.352 C 249.278 379.660, 250.220 379.453, 250.567 378.891 C 250.914 378.330, 252.391 377.947, 253.849 378.041 C 255.307 378.135, 256.725 378.127, 257 378.023 C 259.264 377.165, 284.578 375.474, 304.690 374.836 C 309.745 374.675, 313.345 374.204, 312.690 373.787 C 312.035 373.371, 313.298 373.017, 315.500 373 C 322.479 372.947, 323.034 371.356, 316.716 369.520 C 313.612 368.617, 310.070 367.068, 308.846 366.076 C 306.634 364.285, 306.633 364.267, 308.644 363.191 C 310.740 362.069, 333.499 360.115, 347.500 359.855 C 351.900 359.773, 354.938 359.510, 354.250 359.270 C 351.835 358.426, 353.034 356.999, 356.250 356.889 C 358.038 356.828, 351.337 355.936, 341.361 354.906 C 322.755 352.987, 316.891 351.709, 318.644 349.956 C 319.909 348.691, 335.888 347.289, 359 346.414 C 369.760 346.007, 376.663 345.385, 375.500 344.927 C 373.902 344.299, 374.203 344.114, 377 344.007 C 379.892 343.896, 380.144 343.729, 378.453 343.044 C 377.327 342.588, 365.177 341.906, 351.453 341.529 C 326.238 340.836, 323 340.550, 323 339.019 C 323 338.554, 326.488 336.293, 330.750 333.995 C 341.841 328.014, 349.771 322.103, 360.637 311.715 C 374.231 298.718, 386.565 281.551, 392.483 267.386 L 394.072 263.584 391.319 266.042 C 389.804 267.394, 386.526 270.476, 384.033 272.892 L 379.500 277.284 384.405 273.130 C 387.102 270.845, 389.498 269.164, 389.728 269.395 C 390.167 269.833, 387.170 276.132, 386.110 277 C 385.775 277.275, 384.715 279.197, 383.757 281.270 C 382.234 284.564, 375.077 294.509, 369.919 300.500 C 362.768 308.805, 359.279 312.282, 356.165 314.207 C 352.147 316.690, 350.191 318.262, 346.221 322.197 C 344.724 323.681, 341.925 325.621, 340 326.508 C 338.075 327.396, 334.250 329.456, 331.500 331.088 C 328.750 332.719, 325.819 334.292, 324.987 334.582 C 324.155 334.872, 322.728 336.409, 321.816 337.998 C 320.257 340.715, 319.972 340.816, 317.017 339.700 C 314.181 338.630, 313.707 338.737, 312.146 340.806 C 310.822 342.561, 309.137 343.210, 304.958 343.574 C 301.956 343.836, 297.339 344.758, 294.698 345.623 C 292.056 346.488, 286.206 347.336, 281.698 347.508 C 274.132 347.797, 264.330 348.640, 259.500 349.418 C 258.400 349.595, 256.637 349.292, 255.582 348.745 C 254.527 348.197, 252.164 347.581, 250.332 347.375 C 246.990 346.999, 243.946 346.577, 236.500 345.456 C 234.300 345.125, 230.861 344.432, 228.857 343.917 C 226.853 343.402, 224.545 343.237, 223.726 343.551 C 222.908 343.865, 220.272 343.247, 217.869 342.177 C 215.466 341.108, 211.781 340.224, 209.680 340.213 C 204.965 340.190, 203.905 339.274, 206.443 337.418 C 208.357 336.018, 208.357 336, 206.403 336 C 205.314 336, 202.640 335.085, 200.461 333.967 C 198.283 332.849, 194.779 331.763, 192.676 331.555 C 190.573 331.346, 188.098 330.514, 187.176 329.706 C 186.254 328.898, 184.532 327.942, 183.349 327.582 C 182.167 327.223, 180.931 325.861, 180.604 324.557 C 180.182 322.877, 179.478 322.324, 178.189 322.661 C 176.948 322.985, 174.368 321.208, 170.071 317.068 C 166.607 313.731, 163.462 311, 163.082 311 C 161.932 311, 156 304.489, 156 303.225 C 156 302.577, 154.852 301.294, 153.450 300.375 C 152.047 299.456, 151.127 298.110, 151.406 297.384 C 151.685 296.658, 151.482 295.798, 150.956 295.473 C 150.430 295.148, 150 295.385, 150 296 C 150 296.615, 149.550 296.840, 149 296.500 C 148.450 296.160, 148 294.810, 148 293.500 C 148 290.866, 146.411 289.268, 145.753 291.241 C 145.504 291.989, 144.803 291.487, 144.018 289.997 C 143.293 288.624, 142.430 287.275, 142.100 287 C 140.384 285.571, 136.778 279.461, 133.491 272.414 C 131.461 268.061, 128.720 262.274, 127.400 259.554 C 126.080 256.833, 125 253.764, 125 252.732 C 125 251.701, 124.266 250.123, 123.368 249.225 C 121.859 247.716, 121.791 247.778, 122.466 250.047 M 173.676 317.402 C 173.111 318.874, 173.758 320, 175.167 320 C 175.625 320, 176 319.100, 176 318 C 176 315.707, 174.477 315.315, 173.676 317.402 M 186 325.333 C 186 327.482, 187.121 328.005, 189.267 326.857 C 190.880 325.994, 191.001 325.614, 189.885 324.908 C 187.840 323.613, 186 323.814, 186 325.333 M 231.695 366.700 C 228.041 367.647, 230.843 369.523, 237.082 370.305 C 243.929 371.164, 268.403 370.550, 271.277 369.447 C 273.655 368.535, 273.433 367.349, 270.750 366.630 C 268.161 365.936, 234.408 365.997, 231.695 366.700 M 207.500 371 C 207.840 371.550, 208.740 372, 209.500 372 C 210.260 372, 211.160 371.550, 211.500 371 C 211.852 370.431, 210.991 370, 209.500 370 C 208.009 370, 207.148 370.431, 207.500 371" stroke="none" fill="#54b7f7" fill-rule="evenodd"/><path d="M 293.750 305.706 C 294.988 305.944, 297.012 305.944, 298.250 305.706 C 299.488 305.467, 298.475 305.272, 296 305.272 C 293.525 305.272, 292.512 305.467, 293.750 305.706 M 112.500 344 C 111.769 345.183, 112.748 345.183, 115.500 344 C 117.428 343.171, 117.421 343.138, 115.309 343.070 C 114.104 343.032, 112.840 343.450, 112.500 344 M 118.500 345 C 118.840 345.550, 120.104 345.968, 121.309 345.930 C 123.421 345.862, 123.428 345.829, 121.500 345 C 118.748 343.817, 117.769 343.817, 118.500 345 M 136.762 346.707 C 138.006 346.946, 139.806 346.937, 140.762 346.687 C 141.718 346.437, 140.700 346.241, 138.500 346.252 C 136.300 346.263, 135.518 346.468, 136.762 346.707 M 192.762 376.707 C 194.006 376.946, 195.806 376.937, 196.762 376.687 C 197.718 376.437, 196.700 376.241, 194.500 376.252 C 192.300 376.263, 191.518 376.468, 192.762 376.707 M 203.250 391.689 C 204.213 391.941, 205.787 391.941, 206.750 391.689 C 207.713 391.438, 206.925 391.232, 205 391.232 C 203.075 391.232, 202.287 391.438, 203.250 391.689 M 170.750 398.737 C 173.637 398.939, 178.363 398.939, 181.250 398.737 C 184.137 398.535, 181.775 398.370, 176 398.370 C 170.225 398.370, 167.863 398.535, 170.750 398.737 M 238.762 401.707 C 240.006 401.946, 241.806 401.937, 242.762 401.687 C 243.718 401.437, 242.700 401.241, 240.500 401.252 C 238.300 401.263, 237.518 401.468, 238.762 401.707 M 220.626 402.796 C 220.281 403.355, 219.211 403.624, 218.249 403.393 C 217.287 403.163, 215.825 403.430, 215 403.987 C 213.695 404.868, 213.689 405.121, 214.952 405.934 C 219.525 408.875, 252 408.043, 252 404.985 C 252 404.546, 250.988 404.409, 249.750 404.680 C 247.942 405.077, 247.795 404.963, 249 404.102 C 250.104 403.314, 247.595 403.024, 239.500 403.004 C 233.450 402.990, 226.870 402.708, 224.877 402.379 C 222.825 402.039, 220.982 402.220, 220.626 402.796 M 284.966 402.848 C 286.169 403.699, 285.929 404.076, 283.632 404.950 C 282.092 405.535, 280.416 405.757, 279.908 405.443 C 279.400 405.129, 278.376 405.481, 277.632 406.225 C 276.496 407.361, 277.016 407.608, 280.890 407.767 C 284.377 407.911, 285.135 407.699, 284 406.898 C 282.907 406.126, 284.071 405.999, 288.291 406.433 C 294.896 407.111, 298.879 405.764, 296.991 403.490 C 295.642 401.863, 292.672 402.704, 293.368 404.516 C 293.686 405.346, 293.199 405.603, 291.936 405.273 C 290.884 404.998, 290.209 404.470, 290.438 404.101 C 290.666 403.731, 290.099 403.397, 289.177 403.359 C 288.254 403.320, 286.600 402.957, 285.500 402.550 C 283.953 401.979, 283.832 402.046, 284.966 402.848 M 256 405.721 C 251.720 406.489, 251.905 407.505, 256.304 407.389 C 263.411 407.201, 263.736 407.122, 262 406 C 260.442 404.993, 260.136 404.979, 256 405.721 M 223.784 415.738 C 226.689 415.941, 231.189 415.939, 233.784 415.734 C 236.378 415.528, 234 415.363, 228.500 415.365 C 223 415.368, 220.878 415.536, 223.784 415.738 M 246.397 415.730 C 246.798 416.132, 251.486 416.526, 256.813 416.606 C 262.141 416.686, 267.400 416.839, 268.500 416.946 L 270.500 417.141 268.500 417.989 C 266.881 418.676, 267.103 418.805, 269.665 418.669 C 274.064 418.434, 273.329 416.640, 268.500 415.824 C 263.033 414.900, 245.492 414.826, 246.397 415.730 M 262.500 418 C 260.741 418.756, 260.838 418.868, 263.309 418.930 C 264.941 418.971, 265.859 418.581, 265.500 418 C 265.160 417.450, 264.796 417.032, 264.691 417.070 C 264.586 417.109, 263.600 417.527, 262.500 418" stroke="none" fill="#386893" fill-rule="evenodd"/><path d="M 293.750 305.706 C 294.988 305.944, 297.012 305.944, 298.250 305.706 C 299.488 305.467, 298.475 305.272, 296 305.272 C 293.525 305.272, 292.512 305.467, 293.750 305.706 M 112.500 344 C 111.769 345.183, 112.748 345.183, 115.500 344 C 117.428 343.171, 117.421 343.138, 115.309 343.070 C 114.104 343.032, 112.840 343.450, 112.500 344 M 118.500 345 C 118.840 345.550, 120.104 345.968, 121.309 345.930 C 123.421 345.862, 123.428 345.829, 121.500 345 C 118.748 343.817, 117.769 343.817, 118.500 345 M 136.762 346.707 C 138.006 346.946, 139.806 346.937, 140.762 346.687 C 141.718 346.437, 140.700 346.241, 138.500 346.252 C 136.300 346.263, 135.518 346.468, 136.762 346.707 M 192.762 376.707 C 194.006 376.946, 195.806 376.937, 196.762 376.687 C 197.718 376.437, 196.700 376.241, 194.500 376.252 C 192.300 376.263, 191.518 376.468, 192.762 376.707 M 203.250 391.689 C 204.213 391.941, 205.787 391.941, 206.750 391.689 C 207.713 391.438, 206.925 391.232, 205 391.232 C 203.075 391.232, 202.287 391.438, 203.250 391.689 M 170.750 398.737 C 173.637 398.939, 178.363 398.939, 181.250 398.737 C 184.137 398.535, 181.775 398.370, 176 398.370 C 170.225 398.370, 167.863 398.535, 170.750 398.737 M 238.762 401.707 C 240.006 401.946, 241.806 401.937, 242.762 401.687 C 243.718 401.437, 242.700 401.241, 240.500 401.252 C 238.300 401.263, 237.518 401.468, 238.762 401.707 M 220.626 402.796 C 220.281 403.355, 219.211 403.624, 218.249 403.393 C 217.287 403.163, 215.825 403.430, 215 403.987 C 213.695 404.868, 213.689 405.121, 214.952 405.934 C 219.525 408.875, 252 408.043, 252 404.985 C 252 404.546, 250.988 404.409, 249.750 404.680 C 247.942 405.077, 247.795 404.963, 249 404.102 C 250.104 403.314, 247.595 403.024, 239.500 403.004 C 233.450 402.990, 226.870 402.708, 224.877 402.379 C 222.825 402.039, 220.982 402.220, 220.626 402.796 M 284.966 402.848 C 286.169 403.699, 285.929 404.076, 283.632 404.950 C 282.092 405.535, 280.416 405.757, 279.908 405.443 C 279.400 405.129, 278.376 405.481, 277.632 406.225 C 276.496 407.361, 277.016 407.608, 280.890 407.767 C 284.377 407.911, 285.135 407.699, 284 406.898 C 282.907 406.126, 284.071 405.999, 288.291 406.433 C 294.896 407.111, 298.879 405.764, 296.991 403.490 C 295.642 401.863, 292.672 402.704, 293.368 404.516 C 293.686 405.346, 293.199 405.603, 291.936 405.273 C 290.884 404.998, 290.209 404.470, 290.438 404.101 C 290.666 403.731, 290.099 403.397, 289.177 403.359 C 288.254 403.320, 286.600 402.957, 285.500 402.550 C 283.953 401.979, 283.832 402.046, 284.966 402.848 M 256 405.721 C 251.720 406.489, 251.905 407.505, 256.304 407.389 C 263.411 407.201, 263.736 407.122, 262 406 C 260.442 404.993, 260.136 404.979, 256 405.721 M 223.784 415.738 C 226.689 415.941, 231.189 415.939, 233.784 415.734 C 236.378 415.528, 234 415.363, 228.500 415.365 C 223 415.368, 220.878 415.536, 223.784 415.738 M 246.397 415.730 C 246.798 416.132, 251.486 416.526, 256.813 416.606 C 262.141 416.686, 267.400 416.839, 268.500 416.946 L 270.500 417.141 268.500 417.989 C 266.881 418.676, 267.103 418.805, 269.665 418.669 C 274.064 418.434, 273.329 416.640, 268.500 415.824 C 263.033 414.900, 245.492 414.826, 246.397 415.730 M 262.500 418 C 260.741 418.756, 260.838 418.868, 263.309 418.930 C 264.941 418.971, 265.859 418.581, 265.500 418 C 265.160 417.450, 264.796 417.032, 264.691 417.070 C 264.586 417.109, 263.600 417.527, 262.500 418" stroke="none" fill="#386893" fill-rule="evenodd"/><path d="M 293.750 305.706 C 294.988 305.944, 297.012 305.944, 298.250 305.706 C 299.488 305.467, 298.475 305.272, 296 305.272 C 293.525 305.272, 292.512 305.467, 293.750 305.706 M 112.500 344 C 111.769 345.183, 112.748 345.183, 115.500 344 C 117.428 343.171, 117.421 343.138, 115.309 343.070 C 114.104 343.032, 112.840 343.450, 112.500 344 M 118.500 345 C 118.840 345.550, 120.104 345.968, 121.309 345.930 C 123.421 345.862, 123.428 345.829, 121.500 345 C 118.748 343.817, 117.769 343.817, 118.500 345 M 136.762 346.707 C 138.006 346.946, 139.806 346.937, 140.762 346.687 C 141.718 346.437, 140.700 346.241, 138.500 346.252 C 136.300 346.263, 135.518 346.468, 136.762 346.707 M 192.762 376.707 C 194.006 376.946, 195.806 376.937, 196.762 376.687 C 197.718 376.437, 196.700 376.241, 194.500 376.252 C 192.300 376.263, 191.518 376.468, 192.762 376.707 M 203.250 391.689 C 204.213 391.941, 205.787 391.941, 206.750 391.689 C 207.713 391.438, 206.925 391.232, 205 391.232 C 203.075 391.232, 202.287 391.438, 203.250 391.689 M 170.750 398.737 C 173.637 398.939, 178.363 398.939, 181.250 398.737 C 184.137 398.535, 181.775 398.370, 176 398.370 C 170.225 398.370, 167.863 398.535, 170.750 398.737 M 238.762 401.707 C 240.006 401.946, 241.806 401.937, 242.762 401.687 C 243.718 401.437, 242.700 401.241, 240.500 401.252 C 238.300 401.263, 237.518 401.468, 238.762 401.707 M 220.626 402.796 C 220.281 403.355, 219.211 403.624, 218.249 403.393 C 217.287 403.163, 215.825 403.430, 215 403.987 C 213.695 404.868, 213.689 405.121, 214.952 405.934 C 219.525 408.875, 252 408.043, 252 404.985 C 252 404.546, 250.988 404.409, 249.750 404.680 C 247.942 405.077, 247.795 404.963, 249 404.102 C 250.104 403.314, 247.595 403.024, 239.500 403.004 C 233.450 402.990, 226.870 402.708, 224.877 402.379 C 222.825 402.039, 220.982 402.220, 220.626 402.796 M 284.966 402.848 C 286.169 403.699, 285.929 404.076, 283.632 404.950 C 282.092 405.535, 280.416 405.757, 279.908 405.443 C 279.400 405.129, 278.376 405.481, 277.632 406.225 C 276.496 407.361, 277.016 407.608, 280.890 407.767 C 284.377 407.911, 285.135 407.699, 284 406.898 C 282.907 406.126, 284.071 405.999, 288.291 406.433 C 294.896 407.111, 298.879 405.764, 296.991 403.490 C 295.642 401.863, 292.672 402.704, 293.368 404.516 C 293.686 405.346, 293.199 405.603, 291.936 405.273 C 290.884 404.998, 290.209 404.470, 290.438 404.101 C 290.666 403.731, 290.099 403.397, 289.177 403.359 C 288.254 403.320, 286.600 402.957, 285.500 402.550 C 283.953 401.979, 283.832 402.046, 284.966 402.848 M 256 405.721 C 251.720 406.489, 251.905 407.505, 256.304 407.389 C 263.411 407.201, 263.736 407.122, 262 406 C 260.442 404.993, 260.136 404.979, 256 405.721 M 223.784 415.738 C 226.689 415.941, 231.189 415.939, 233.784 415.734 C 236.378 415.528, 234 415.363, 228.500 415.365 C 223 415.368, 220.878 415.536, 223.784 415.738 M 246.397 415.730 C 246.798 416.132, 251.486 416.526, 256.813 416.606 C 262.141 416.686, 267.400 416.839, 268.500 416.946 L 270.500 417.141 268.500 417.989 C 266.881 418.676, 267.103 418.805, 269.665 418.669 C 274.064 418.434, 273.329 416.640, 268.500 415.824 C 263.033 414.900, 245.492 414.826, 246.397 415.730 M 262.500 418 C 260.741 418.756, 260.838 418.868, 263.309 418.930 C 264.941 418.971, 265.859 418.581, 265.500 418 C 265.160 417.450, 264.796 417.032, 264.691 417.070 C 264.586 417.109, 263.600 417.527, 262.500 418" stroke="none" fill="#386893" fill-rule="evenodd"/><path d="M 293.750 305.706 C 294.988 305.944, 297.012 305.944, 298.250 305.706 C 299.488 305.467, 298.475 305.272, 296 305.272 C 293.525 305.272, 292.512 305.467, 293.750 305.706 M 112.500 344 C 111.769 345.183, 112.748 345.183, 115.500 344 C 117.428 343.171, 117.421 343.138, 115.309 343.070 C 114.104 343.032, 112.840 343.450, 112.500 344 M 118.500 345 C 118.840 345.550, 120.104 345.968, 121.309 345.930 C 123.421 345.862, 123.428 345.829, 121.500 345 C 118.748 343.817, 117.769 343.817, 118.500 345 M 136.762 346.707 C 138.006 346.946, 139.806 346.937, 140.762 346.687 C 141.718 346.437, 140.700 346.241, 138.500 346.252 C 136.300 346.263, 135.518 346.468, 136.762 346.707 M 192.762 376.707 C 194.006 376.946, 195.806 376.937, 196.762 376.687 C 197.718 376.437, 196.700 376.241, 194.500 376.252 C 192.300 376.263, 191.518 376.468, 192.762 376.707 M 203.250 391.689 C 204.213 391.941, 205.787 391.941, 206.750 391.689 C 207.713 391.438, 206.925 391.232, 205 391.232 C 203.075 391.232, 202.287 391.438, 203.250 391.689 M 170.750 398.737 C 173.637 398.939, 178.363 398.939, 181.250 398.737 C 184.137 398.535, 181.775 398.370, 176 398.370 C 170.225 398.370, 167.863 398.535, 170.750 398.737 M 238.762 401.707 C 240.006 401.946, 241.806 401.937, 242.762 401.687 C 243.718 401.437, 242.700 401.241, 240.500 401.252 C 238.300 401.263, 237.518 401.468, 238.762 401.707 M 220.626 402.796 C 220.281 403.355, 219.211 403.624, 218.249 403.393 C 217.287 403.163, 215.825 403.430, 215 403.987 C 213.695 404.868, 213.689 405.121, 214.952 405.934 C 219.525 408.875, 252 408.043, 252 404.985 C 252 404.546, 250.988 404.409, 249.750 404.680 C 247.942 405.077, 247.795 404.963, 249 404.102 C 250.104 403.314, 247.595 403.024, 239.500 403.004 C 233.450 402.990, 226.870 402.708, 224.877 402.379 C 222.825 402.039, 220.982 402.220, 220.626 402.796 M 284.966 402.848 C 286.169 403.699, 285.929 404.076, 283.632 404.950 C 282.092 405.535, 280.416 405.757, 279.908 405.443 C 279.400 405.129, 278.376 405.481, 277.632 406.225 C 276.496 407.361, 277.016 407.608, 280.890 407.767 C 284.377 407.911, 285.135 407.699, 284 406.898 C 282.907 406.126, 284.071 405.999, 288.291 406.433 C 294.896 407.111, 298.879 405.764, 296.991 403.490 C 295.642 401.863, 292.672 402.704, 293.368 404.516 C 293.686 405.346, 293.199 405.603, 291.936 405.273 C 290.884 404.998, 290.209 404.470, 290.438 404.101 C 290.666 403.731, 290.099 403.397, 289.177 403.359 C 288.254 403.320, 286.600 402.957, 285.500 402.550 C 283.953 401.979, 283.832 402.046, 284.966 402.848 M 256 405.721 C 251.720 406.489, 251.905 407.505, 256.304 407.389 C 263.411 407.201, 263.736 407.122, 262 406 C 260.442 404.993, 260.136 404.979, 256 405.721 M 223.784 415.738 C 226.689 415.941, 231.189 415.939, 233.784 415.734 C 236.378 415.528, 234 415.363, 228.500 415.365 C 223 415.368, 220.878 415.536, 223.784 415.738 M 246.397 415.730 C 246.798 416.132, 251.486 416.526, 256.813 416.606 C 262.141 416.686, 267.400 416.839, 268.500 416.946 L 270.500 417.141 268.500 417.989 C 266.881 418.676, 267.103 418.805, 269.665 418.669 C 274.064 418.434, 273.329 416.640, 268.500 415.824 C 263.033 414.900, 245.492 414.826, 246.397 415.730 M 262.500 418 C 260.741 418.756, 260.838 418.868, 263.309 418.930 C 264.941 418.971, 265.859 418.581, 265.500 418 C 265.160 417.450, 264.796 417.032, 264.691 417.070 C 264.586 417.109, 263.600 417.527, 262.500 418" stroke="none" fill="#386893" fill-rule="evenodd"/><path d="M 293.750 305.706 C 294.988 305.944, 297.012 305.944, 298.250 305.706 C 299.488 305.467, 298.475 305.272, 296 305.272 C 293.525 305.272, 292.512 305.467, 293.750 305.706 M 112.500 344 C 111.769 345.183, 112.748 345.183, 115.500 344 C 117.428 343.171, 117.421 343.138, 115.309 343.070 C 114.104 343.032, 112.840 343.450, 112.500 344 M 118.500 345 C 118.840 345.550, 120.104 345.968, 121.309 345.930 C 123.421 345.862, 123.428 345.829, 121.500 345 C 118.748 343.817, 117.769 343.817, 118.500 345 M 136.762 346.707 C 138.006 346.946, 139.806 346.937, 140.762 346.687 C 141.718 346.437, 140.700 346.241, 138.500 346.252 C 136.300 346.263, 135.518 346.468, 136.762 346.707 M 192.762 376.707 C 194.006 376.946, 195.806 376.937, 196.762 376.687 C 197.718 376.437, 196.700 376.241, 194.500 376.252 C 192.300 376.263, 191.518 376.468, 192.762 376.707 M 203.250 391.689 C 204.213 391.941, 205.787 391.941, 206.750 391.689 C 207.713 391.438, 206.925 391.232, 205 391.232 C 203.075 391.232, 202.287 391.438, 203.250 391.689 M 170.750 398.737 C 173.637 398.939, 178.363 398.939, 181.250 398.737 C 184.137 398.535, 181.775 398.370, 176 398.370 C 170.225 398.370, 167.863 398.535, 170.750 398.737 M 238.762 401.707 C 240.006 401.946, 241.806 401.937, 242.762 401.687 C 243.718 401.437, 242.700 401.241, 240.500 401.252 C 238.300 401.263, 237.518 401.468, 238.762 401.707 M 220.626 402.796 C 220.281 403.355, 219.211 403.624, 218.249 403.393 C 217.287 403.163, 215.825 403.430, 215 403.987 C 213.695 404.868, 213.689 405.121, 214.952 405.934 C 219.525 408.875, 252 408.043, 252 404.985 C 252 404.546, 250.988 404.409, 249.750 404.680 C 247.942 405.077, 247.795 404.963, 249 404.102 C 250.104 403.314, 247.595 403.024, 239.500 403.004 C 233.450 402.990, 226.870 402.708, 224.877 402.379 C 222.825 402.039, 220.982 402.220, 220.626 402.796 M 284.966 402.848 C 286.169 403.699, 285.929 404.076, 283.632 404.950 C 282.092 405.535, 280.416 405.757, 279.908 405.443 C 279.400 405.129, 278.376 405.481, 277.632 406.225 C 276.496 407.361, 277.016 407.608, 280.890 407.767 C 284.377 407.911, 285.135 407.699, 284 406.898 C 282.907 406.126, 284.071 405.999, 288.291 406.433 C 294.896 407.111, 298.879 405.764, 296.991 403.490 C 295.642 401.863, 292.672 402.704, 293.368 404.516 C 293.686 405.346, 293.199 405.603, 291.936 405.273 C 290.884 404.998, 290.209 404.470, 290.438 404.101 C 290.666 403.731, 290.099 403.397, 289.177 403.359 C 288.254 403.320, 286.600 402.957, 285.500 402.550 C 283.953 401.979, 283.832 402.046, 284.966 402.848 M 256 405.721 C 251.720 406.489, 251.905 407.505, 256.304 407.389 C 263.411 407.201, 263.736 407.122, 262 406 C 260.442 404.993, 260.136 404.979, 256 405.721 M 223.784 415.738 C 226.689 415.941, 231.189 415.939, 233.784 415.734 C 236.378 415.528, 234 415.363, 228.500 415.365 C 223 415.368, 220.878 415.536, 223.784 415.738 M 246.397 415.730 C 246.798 416.132, 251.486 416.526, 256.813 416.606 C 262.141 416.686, 267.400 416.839, 268.500 416.946 L 270.500 417.141 268.500 417.989 C 266.881 418.676, 267.103 418.805, 269.665 418.669 C 274.064 418.434, 273.329 416.640, 268.500 415.824 C 263.033 414.900, 245.492 414.826, 246.397 415.730 M 262.500 418 C 260.741 418.756, 260.838 418.868, 263.309 418.930 C 264.941 418.971, 265.859 418.581, 265.500 418 C 265.160 417.450, 264.796 417.032, 264.691 417.070 C 264.586 417.109, 263.600 417.527, 262.500 418" stroke="none" fill="#386893" fill-rule="evenodd"/><path d="M 293.750 305.706 C 294.988 305.944, 297.012 305.944, 298.250 305.706 C 299.488 305.467, 298.475 305.272, 296 305.272 C 293.525 305.272, 292.512 305.467, 293.750 305.706 M 112.500 344 C 111.769 345.183, 112.748 345.183, 115.500 344 C 117.428 343.171, 117.421 343.138, 115.309 343.070 C 114.104 343.032, 112.840 343.450, 112.500 344 M 118.500 345 C 118.840 345.550, 120.104 345.968, 121.309 345.930 C 123.421 345.862, 123.428 345.829, 121.500 345 C 118.748 343.817, 117.769 343.817, 118.500 345 M 136.762 346.707 C 138.006 346.946, 139.806 346.937, 140.762 346.687 C 141.718 346.437, 140.700 346.241, 138.500 346.252 C 136.300 346.263, 135.518 346.468, 136.762 346.707 M 192.762 376.707 C 194.006 376.946, 195.806 376.937, 196.762 376.687 C 197.718 376.437, 196.700 376.241, 194.500 376.252 C 192.300 376.263, 191.518 376.468, 192.762 376.707 M 203.250 391.689 C 204.213 391.941, 205.787 391.941, 206.750 391.689 C 207.713 391.438, 206.925 391.232, 205 391.232 C 203.075 391.232, 202.287 391.438, 203.250 391.689 M 170.750 398.737 C 173.637 398.939, 178.363 398.939, 181.250 398.737 C 184.137 398.535, 181.775 398.370, 176 398.370 C 170.225 398.370, 167.863 398.535, 170.750 398.737 M 238.762 401.707 C 240.006 401.946, 241.806 401.937, 242.762 401.687 C 243.718 401.437, 242.700 401.241, 240.500 401.252 C 238.300 401.263, 237.518 401.468, 238.762 401.707 M 220.626 402.796 C 220.281 403.355, 219.211 403.624, 218.249 403.393 C 217.287 403.163, 215.825 403.430, 215 403.987 C 213.695 404.868, 213.689 405.121, 214.952 405.934 C 219.525 408.875, 252 408.043, 252 404.985 C 252 404.546, 250.988 404.409, 249.750 404.680 C 247.942 405.077, 247.795 404.963, 249 404.102 C 250.104 403.314, 247.595 403.024, 239.500 403.004 C 233.450 402.990, 226.870 402.708, 224.877 402.379 C 222.825 402.039, 220.982 402.220, 220.626 402.796 M 284.966 402.848 C 286.169 403.699, 285.929 404.076, 283.632 404.950 C 282.092 405.535, 280.416 405.757, 279.908 405.443 C 279.400 405.129, 278.376 405.481, 277.632 406.225 C 276.496 407.361, 277.016 407.608, 280.890 407.767 C 284.377 407.911, 285.135 407.699, 284 406.898 C 282.907 406.126, 284.071 405.999, 288.291 406.433 C 294.896 407.111, 298.879 405.764, 296.991 403.490 C 295.642 401.863, 292.672 402.704, 293.368 404.516 C 293.686 405.346, 293.199 405.603, 291.936 405.273 C 290.884 404.998, 290.209 404.470, 290.438 404.101 C 290.666 403.731, 290.099 403.397, 289.177 403.359 C 288.254 403.320, 286.600 402.957, 285.500 402.550 C 283.953 401.979, 283.832 402.046, 284.966 402.848 M 256 405.721 C 251.720 406.489, 251.905 407.505, 256.304 407.389 C 263.411 407.201, 263.736 407.122, 262 406 C 260.442 404.993, 260.136 404.979, 256 405.721 M 223.784 415.738 C 226.689 415.941, 231.189 415.939, 233.784 415.734 C 236.378 415.528, 234 415.363, 228.500 415.365 C 223 415.368, 220.878 415.536, 223.784 415.738 M 246.397 415.730 C 246.798 416.132, 251.486 416.526, 256.813 416.606 C 262.141 416.686, 267.400 416.839, 268.500 416.946 L 270.500 417.141 268.500 417.989 C 266.881 418.676, 267.103 418.805, 269.665 418.669 C 274.064 418.434, 273.329 416.640, 268.500 415.824 C 263.033 414.900, 245.492 414.826, 246.397 415.730 M 262.500 418 C 260.741 418.756, 260.838 418.868, 263.309 418.930 C 264.941 418.971, 265.859 418.581, 265.500 418 C 265.160 417.450, 264.796 417.032, 264.691 417.070 C 264.586 417.109, 263.600 417.527, 262.500 418" stroke="none" fill="#386893" fill-rule="evenodd"/><path d="M 293.750 305.706 C 294.988 305.944, 297.012 305.944, 298.250 305.706 C 299.488 305.467, 298.475 305.272, 296 305.272 C 293.525 305.272, 292.512 305.467, 293.750 305.706 M 112.500 344 C 111.769 345.183, 112.748 345.183, 115.500 344 C 117.428 343.171, 117.421 343.138, 115.309 343.070 C 114.104 343.032, 112.840 343.450, 112.500 344 M 118.500 345 C 118.840 345.550, 120.104 345.968, 121.309 345.930 C 123.421 345.862, 123.428 345.829, 121.500 345 C 118.748 343.817, 117.769 343.817, 118.500 345 M 136.762 346.707 C 138.006 346.946, 139.806 346.937, 140.762 346.687 C 141.718 346.437, 140.700 346.241, 138.500 346.252 C 136.300 346.263, 135.518 346.468, 136.762 346.707 M 192.762 376.707 C 194.006 376.946, 195.806 376.937, 196.762 376.687 C 197.718 376.437, 196.700 376.241, 194.500 376.252 C 192.300 376.263, 191.518 376.468, 192.762 376.707 M 203.250 391.689 C 204.213 391.941, 205.787 391.941, 206.750 391.689 C 207.713 391.438, 206.925 391.232, 205 391.232 C 203.075 391.232, 202.287 391.438, 203.250 391.689 M 170.750 398.737 C 173.637 398.939, 178.363 398.939, 181.250 398.737 C 184.137 398.535, 181.775 398.370, 176 398.370 C 170.225 398.370, 167.863 398.535, 170.750 398.737 M 238.762 401.707 C 240.006 401.946, 241.806 401.937, 242.762 401.687 C 243.718 401.437, 242.700 401.241, 240.500 401.252 C 238.300 401.263, 237.518 401.468, 238.762 401.707 M 220.626 402.796 C 220.281 403.355, 219.211 403.624, 218.249 403.393 C 217.287 403.163, 215.825 403.430, 215 403.987 C 213.695 404.868, 213.689 405.121, 214.952 405.934 C 219.525 408.875, 252 408.043, 252 404.985 C 252 404.546, 250.988 404.409, 249.750 404.680 C 247.942 405.077, 247.795 404.963, 249 404.102 C 250.104 403.314, 247.595 403.024, 239.500 403.004 C 233.450 402.990, 226.870 402.708, 224.877 402.379 C 222.825 402.039, 220.982 402.220, 220.626 402.796 M 284.966 402.848 C 286.169 403.699, 285.929 404.076, 283.632 404.950 C 282.092 405.535, 280.416 405.757, 279.908 405.443 C 279.400 405.129, 278.376 405.481, 277.632 406.225 C 276.496 407.361, 277.016 407.608, 280.890 407.767 C 284.377 407.911, 285.135 407.699, 284 406.898 C 282.907 406.126, 284.071 405.999, 288.291 406.433 C 294.896 407.111, 298.879 405.764, 296.991 403.490 C 295.642 401.863, 292.672 402.704, 293.368 404.516 C 293.686 405.346, 293.199 405.603, 291.936 405.273 C 290.884 404.998, 290.209 404.470, 290.438 404.101 C 290.666 403.731, 290.099 403.397, 289.177 403.359 C 288.254 403.320, 286.600 402.957, 285.500 402.550 C 283.953 401.979, 283.832 402.046, 284.966 402.848 M 256 405.721 C 251.720 406.489, 251.905 407.505, 256.304 407.389 C 263.411 407.201, 263.736 407.122, 262 406 C 260.442 404.993, 260.136 404.979, 256 405.721 M 223.784 415.738 C 226.689 415.941, 231.189 415.939, 233.784 415.734 C 236.378 415.528, 234 415.363, 228.500 415.365 C 223 415.368, 220.878 415.536, 223.784 415.738 M 246.397 415.730 C 246.798 416.132, 251.486 416.526, 256.813 416.606 C 262.141 416.686, 267.400 416.839, 268.500 416.946 L 270.500 417.141 268.500 417.989 C 266.881 418.676, 267.103 418.805, 269.665 418.669 C 274.064 418.434, 273.329 416.640, 268.500 415.824 C 263.033 414.900, 245.492 414.826, 246.397 415.730 M 262.500 418 C 260.741 418.756, 260.838 418.868, 263.309 418.930 C 264.941 418.971, 265.859 418.581, 265.500 418 C 265.160 417.450, 264.796 417.032, 264.691 417.070 C 264.586 417.109, 263.600 417.527, 262.500 418" stroke="none" fill="#386893" fill-rule="evenodd"/><path d="M 293.750 305.706 C 294.988 305.944, 297.012 305.944, 298.250 305.706 C 299.488 305.467, 298.475 305.272, 296 305.272 C 293.525 305.272, 292.512 305.467, 293.750 305.706 M 112.500 344 C 111.769 345.183, 112.748 345.183, 115.500 344 C 117.428 343.171, 117.421 343.138, 115.309 343.070 C 114.104 343.032, 112.840 343.450, 112.500 344 M 118.500 345 C 118.840 345.550, 120.104 345.968, 121.309 345.930 C 123.421 345.862, 123.428 345.829, 121.500 345 C 118.748 343.817, 117.769 343.817, 118.500 345 M 136.762 346.707 C 138.006 346.946, 139.806 346.937, 140.762 346.687 C 141.718 346.437, 140.700 346.241, 138.500 346.252 C 136.300 346.263, 135.518 346.468, 136.762 346.707 M 192.762 376.707 C 194.006 376.946, 195.806 376.937, 196.762 376.687 C 197.718 376.437, 196.700 376.241, 194.500 376.252 C 192.300 376.263, 191.518 376.468, 192.762 376.707 M 203.250 391.689 C 204.213 391.941, 205.787 391.941, 206.750 391.689 C 207.713 391.438, 206.925 391.232, 205 391.232 C 203.075 391.232, 202.287 391.438, 203.250 391.689 M 170.750 398.737 C 173.637 398.939, 178.363 398.939, 181.250 398.737 C 184.137 398.535, 181.775 398.370, 176 398.370 C 170.225 398.370, 167.863 398.535, 170.750 398.737 M 238.762 401.707 C 240.006 401.946, 241.806 401.937, 242.762 401.687 C 243.718 401.437, 242.700 401.241, 240.500 401.252 C 238.300 401.263, 237.518 401.468, 238.762 401.707 M 220.626 402.796 C 220.281 403.355, 219.211 403.624, 218.249 403.393 C 217.287 403.163, 215.825 403.430, 215 403.987 C 213.695 404.868, 213.689 405.121, 214.952 405.934 C 219.525 408.875, 252 408.043, 252 404.985 C 252 404.546, 250.988 404.409, 249.750 404.680 C 247.942 405.077, 247.795 404.963, 249 404.102 C 250.104 403.314, 247.595 403.024, 239.500 403.004 C 233.450 402.990, 226.870 402.708, 224.877 402.379 C 222.825 402.039, 220.982 402.220, 220.626 402.796 M 284.966 402.848 C 286.169 403.699, 285.929 404.076, 283.632 404.950 C 282.092 405.535, 280.416 405.757, 279.908 405.443 C 279.400 405.129, 278.376 405.481, 277.632 406.225 C 276.496 407.361, 277.016 407.608, 280.890 407.767 C 284.377 407.911, 285.135 407.699, 284 406.898 C 282.907 406.126, 284.071 405.999, 288.291 406.433 C 294.896 407.111, 298.879 405.764, 296.991 403.490 C 295.642 401.863, 292.672 402.704, 293.368 404.516 C 293.686 405.346, 293.199 405.603, 291.936 405.273 C 290.884 404.998, 290.209 404.470, 290.438 404.101 C 290.666 403.731, 290.099 403.397, 289.177 403.359 C 288.254 403.320, 286.600 402.957, 285.500 402.550 C 283.953 401.979, 283.832 402.046, 284.966 402.848 M 256 405.721 C 251.720 406.489, 251.905 407.505, 256.304 407.389 C 263.411 407.201, 263.736 407.122, 262 406 C 260.442 404.993, 260.136 404.979, 256 405.721 M 223.784 415.738 C 226.689 415.941, 231.189 415.939, 233.784 415.734 C 236.378 415.528, 234 415.363, 228.500 415.365 C 223 415.368, 220.878 415.536, 223.784 415.738 M 246.397 415.730 C 246.798 416.132, 251.486 416.526, 256.813 416.606 C 262.141 416.686, 267.400 416.839, 268.500 416.946 L 270.500 417.141 268.500 417.989 C 266.881 418.676, 267.103 418.805, 269.665 418.669 C 274.064 418.434, 273.329 416.640, 268.500 415.824 C 263.033 414.900, 245.492 414.826, 246.397 415.730 M 262.500 418 C 260.741 418.756, 260.838 418.868, 263.309 418.930 C 264.941 418.971, 265.859 418.581, 265.500 418 C 265.160 417.450, 264.796 417.032, 264.691 417.070 C 264.586 417.109, 263.600 417.527, 262.500 418" stroke="none" fill="#386893" fill-rule="evenodd"/><path d="M 293.750 305.706 C 294.988 305.944, 297.012 305.944, 298.250 305.706 C 299.488 305.467, 298.475 305.272, 296 305.272 C 293.525 305.272, 292.512 305.467, 293.750 305.706 M 112.500 344 C 111.769 345.183, 112.748 345.183, 115.500 344 C 117.428 343.171, 117.421 343.138, 115.309 343.070 C 114.104 343.032, 112.840 343.450, 112.500 344 M 118.500 345 C 118.840 345.550, 120.104 345.968, 121.309 345.930 C 123.421 345.862, 123.428 345.829, 121.500 345 C 118.748 343.817, 117.769 343.817, 118.500 345 M 136.762 346.707 C 138.006 346.946, 139.806 346.937, 140.762 346.687 C 141.718 346.437, 140.700 346.241, 138.500 346.252 C 136.300 346.263, 135.518 346.468, 136.762 346.707 M 192.762 376.707 C 194.006 376.946, 195.806 376.937, 196.762 376.687 C 197.718 376.437, 196.700 376.241, 194.500 376.252 C 192.300 376.263, 191.518 376.468, 192.762 376.707 M 203.250 391.689 C 204.213 391.941, 205.787 391.941, 206.750 391.689 C 207.713 391.438, 206.925 391.232, 205 391.232 C 203.075 391.232, 202.287 391.438, 203.250 391.689 M 170.750 398.737 C 173.637 398.939, 178.363 398.939, 181.250 398.737 C 184.137 398.535, 181.775 398.370, 176 398.370 C 170.225 398.370, 167.863 398.535, 170.750 398.737 M 238.762 401.707 C 240.006 401.946, 241.806 401.937, 242.762 401.687 C 243.718 401.437, 242.700 401.241, 240.500 401.252 C 238.300 401.263, 237.518 401.468, 238.762 401.707 M 220.626 402.796 C 220.281 403.355, 219.211 403.624, 218.249 403.393 C 217.287 403.163, 215.825 403.430, 215 403.987 C 213.695 404.868, 213.689 405.121, 214.952 405.934 C 219.525 408.875, 252 408.043, 252 404.985 C 252 404.546, 250.988 404.409, 249.750 404.680 C 247.942 405.077, 247.795 404.963, 249 404.102 C 250.104 403.314, 247.595 403.024, 239.500 403.004 C 233.450 402.990, 226.870 402.708, 224.877 402.379 C 222.825 402.039, 220.982 402.220, 220.626 402.796 M 284.966 402.848 C 286.169 403.699, 285.929 404.076, 283.632 404.950 C 282.092 405.535, 280.416 405.757, 279.908 405.443 C 279.400 405.129, 278.376 405.481, 277.632 406.225 C 276.496 407.361, 277.016 407.608, 280.890 407.767 C 284.377 407.911, 285.135 407.699, 284 406.898 C 282.907 406.126, 284.071 405.999, 288.291 406.433 C 294.896 407.111, 298.879 405.764, 296.991 403.490 C 295.642 401.863, 292.672 402.704, 293.368 404.516 C 293.686 405.346, 293.199 405.603, 291.936 405.273 C 290.884 404.998, 290.209 404.470, 290.438 404.101 C 290.666 403.731, 290.099 403.397, 289.177 403.359 C 288.254 403.320, 286.600 402.957, 285.500 402.550 C 283.953 401.979, 283.832 402.046, 284.966 402.848 M 256 405.721 C 251.720 406.489, 251.905 407.505, 256.304 407.389 C 263.411 407.201, 263.736 407.122, 262 406 C 260.442 404.993, 260.136 404.979, 256 405.721 M 223.784 415.738 C 226.689 415.941, 231.189 415.939, 233.784 415.734 C 236.378 415.528, 234 415.363, 228.500 415.365 C 223 415.368, 220.878 415.536, 223.784 415.738 M 246.397 415.730 C 246.798 416.132, 251.486 416.526, 256.813 416.606 C 262.141 416.686, 267.400 416.839, 268.500 416.946 L 270.500 417.141 268.500 417.989 C 266.881 418.676, 267.103 418.805, 269.665 418.669 C 274.064 418.434, 273.329 416.640, 268.500 415.824 C 263.033 414.900, 245.492 414.826, 246.397 415.730 M 262.500 418 C 260.741 418.756, 260.838 418.868, 263.309 418.930 C 264.941 418.971, 265.859 418.581, 265.500 418 C 265.160 417.450, 264.796 417.032, 264.691 417.070 C 264.586 417.109, 263.600 417.527, 262.500 418" stroke="none" fill="#386893" fill-rule="evenodd"/><path d="M 293.750 305.706 C 294.988 305.944, 297.012 305.944, 298.250 305.706 C 299.488 305.467, 298.475 305.272, 296 305.272 C 293.525 305.272, 292.512 305.467, 293.750 305.706 M 112.500 344 C 111.769 345.183, 112.748 345.183, 115.500 344 C 117.428 343.171, 117.421 343.138, 115.309 343.070 C 114.104 343.032, 112.840 343.450, 112.500 344 M 118.500 345 C 118.840 345.550, 120.104 345.968, 121.309 345.930 C 123.421 345.862, 123.428 345.829, 121.500 345 C 118.748 343.817, 117.769 343.817, 118.500 345 M 136.762 346.707 C 138.006 346.946, 139.806 346.937, 140.762 346.687 C 141.718 346.437, 140.700 346.241, 138.500 346.252 C 136.300 346.263, 135.518 346.468, 136.762 346.707 M 192.762 376.707 C 194.006 376.946, 195.806 376.937, 196.762 376.687 C 197.718 376.437, 196.700 376.241, 194.500 376.252 C 192.300 376.263, 191.518 376.468, 192.762 376.707 M 203.250 391.689 C 204.213 391.941, 205.787 391.941, 206.750 391.689 C 207.713 391.438, 206.925 391.232, 205 391.232 C 203.075 391.232, 202.287 391.438, 203.250 391.689 M 170.750 398.737 C 173.637 398.939, 178.363 398.939, 181.250 398.737 C 184.137 398.535, 181.775 398.370, 176 398.370 C 170.225 398.370, 167.863 398.535, 170.750 398.737 M 238.762 401.707 C 240.006 401.946, 241.806 401.937, 242.762 401.687 C 243.718 401.437, 242.700 401.241, 240.500 401.252 C 238.300 401.263, 237.518 401.468, 238.762 401.707 M 220.626 402.796 C 220.281 403.355, 219.211 403.624, 218.249 403.393 C 217.287 403.163, 215.825 403.430, 215 403.987 C 213.695 404.868, 213.689 405.121, 214.952 405.934 C 219.525 408.875, 252 408.043, 252 404.985 C 252 404.546, 250.988 404.409, 249.750 404.680 C 247.942 405.077, 247.795 404.963, 249 404.102 C 250.104 403.314, 247.595 403.024, 239.500 403.004 C 233.450 402.990, 226.870 402.708, 224.877 402.379 C 222.825 402.039, 220.982 402.220, 220.626 402.796 M 284.966 402.848 C 286.169 403.699, 285.929 404.076, 283.632 404.950 C 282.092 405.535, 280.416 405.757, 279.908 405.443 C 279.400 405.129, 278.376 405.481, 277.632 406.225 C 276.496 407.361, 277.016 407.608, 280.890 407.767 C 284.377 407.911, 285.135 407.699, 284 406.898 C 282.907 406.126, 284.071 405.999, 288.291 406.433 C 294.896 407.111, 298.879 405.764, 296.991 403.490 C 295.642 401.863, 292.672 402.704, 293.368 404.516 C 293.686 405.346, 293.199 405.603, 291.936 405.273 C 290.884 404.998, 290.209 404.470, 290.438 404.101 C 290.666 403.731, 290.099 403.397, 289.177 403.359 C 288.254 403.320, 286.600 402.957, 285.500 402.550 C 283.953 401.979, 283.832 402.046, 284.966 402.848 M 256 405.721 C 251.720 406.489, 251.905 407.505, 256.304 407.389 C 263.411 407.201, 263.736 407.122, 262 406 C 260.442 404.993, 260.136 404.979, 256 405.721 M 223.784 415.738 C 226.689 415.941, 231.189 415.939, 233.784 415.734 C 236.378 415.528, 234 415.363, 228.500 415.365 C 223 415.368, 220.878 415.536, 223.784 415.738 M 246.397 415.730 C 246.798 416.132, 251.486 416.526, 256.813 416.606 C 262.141 416.686, 267.400 416.839, 268.500 416.946 L 270.500 417.141 268.500 417.989 C 266.881 418.676, 267.103 418.805, 269.665 418.669 C 274.064 418.434, 273.329 416.640, 268.500 415.824 C 263.033 414.900, 245.492 414.826, 246.397 415.730 M 262.500 418 C 260.741 418.756, 260.838 418.868, 263.309 418.930 C 264.941 418.971, 265.859 418.581, 265.500 418 C 265.160 417.450, 264.796 417.032, 264.691 417.070 C 264.586 417.109, 263.600 417.527, 262.500 418" stroke="none" fill="#386893" fill-rule="evenodd"/><path d="M 195.678 78.537 C 182.194 85.303, 171.630 93.181, 158.973 105.909 C 146.780 118.170, 138.082 130.052, 131.680 143.193 C 127.399 151.980, 121.492 168.583, 120.542 174.500 C 120.188 176.700, 119.185 182.325, 118.312 187 C 116.555 196.405, 116.958 221.708, 119.029 232.018 C 121.818 245.904, 122.460 248.317, 123.688 249.545 C 124.409 250.267, 125 251.701, 125 252.732 C 125 253.764, 126.080 256.833, 127.400 259.554 C 128.720 262.274, 131.461 268.061, 133.491 272.414 C 136.778 279.461, 140.384 285.571, 142.100 287 C 142.430 287.275, 143.293 288.624, 144.018 289.997 C 144.803 291.487, 145.504 291.989, 145.753 291.241 C 146.411 289.268, 148 290.866, 148 293.500 C 148 294.810, 148.450 296.160, 149 296.500 C 149.550 296.840, 150 296.615, 150 296 C 150 295.385, 150.430 295.148, 150.956 295.473 C 151.482 295.798, 151.685 296.658, 151.406 297.384 C 151.127 298.110, 152.047 299.456, 153.450 300.375 C 154.852 301.294, 156 302.622, 156 303.327 C 156 304.576, 162.014 311, 163.184 311 C 163.507 311, 166.607 313.731, 170.071 317.068 C 174.368 321.208, 176.948 322.985, 178.189 322.661 C 179.478 322.324, 180.182 322.877, 180.604 324.557 C 180.931 325.861, 182.167 327.223, 183.349 327.582 C 184.532 327.942, 186.254 328.898, 187.176 329.706 C 188.098 330.514, 190.573 331.346, 192.676 331.555 C 194.779 331.763, 198.283 332.849, 200.461 333.967 C 202.640 335.085, 205.314 336, 206.403 336 C 208.357 336, 208.357 336.018, 206.443 337.418 C 203.905 339.274, 204.965 340.190, 209.680 340.213 C 211.781 340.224, 215.466 341.108, 217.869 342.177 C 220.272 343.247, 222.908 343.865, 223.726 343.551 C 224.545 343.237, 226.853 343.402, 228.857 343.917 C 230.861 344.432, 234.300 345.125, 236.500 345.456 C 245.299 346.780, 246.635 346.967, 250.082 347.350 C 252.052 347.570, 254.527 348.197, 255.582 348.745 C 256.637 349.292, 258.400 349.595, 259.500 349.418 C 264.330 348.640, 274.132 347.797, 281.698 347.508 C 286.206 347.336, 292.056 346.488, 294.698 345.623 C 297.339 344.758, 301.956 343.836, 304.958 343.574 C 309.137 343.210, 310.822 342.561, 312.146 340.806 C 313.707 338.737, 314.181 338.630, 317.017 339.700 C 319.972 340.816, 320.257 340.715, 321.816 337.998 C 322.728 336.409, 324.155 334.872, 324.987 334.582 C 325.819 334.292, 328.750 332.719, 331.500 331.088 C 334.250 329.456, 338.075 327.396, 340 326.508 C 341.925 325.621, 344.724 323.681, 346.221 322.197 C 350.191 318.262, 352.147 316.690, 356.165 314.207 C 359.279 312.282, 362.768 308.805, 369.919 300.500 C 375.077 294.509, 382.234 284.564, 383.757 281.270 C 384.715 279.197, 385.775 277.275, 386.110 277 C 387.139 276.157, 390.173 269.840, 389.751 269.418 C 389.533 269.200, 386.926 271.095, 383.958 273.628 C 347.947 304.367, 299.727 313.785, 254.425 298.928 C 215.594 286.193, 183.697 254.219, 170.540 214.841 C 162.222 189.947, 161.728 161.793, 169.157 136 C 174.712 116.712, 185.208 98.247, 199.709 82.250 C 203.823 77.713, 206.583 74.025, 205.844 74.055 C 205.105 74.086, 200.530 76.102, 195.678 78.537 M 173.676 317.402 C 173.111 318.874, 173.758 320, 175.167 320 C 175.625 320, 176 319.100, 176 318 C 176 315.707, 174.477 315.315, 173.676 317.402 M 186 325.333 C 186 327.482, 187.121 328.005, 189.267 326.857 C 190.880 325.994, 191.001 325.614, 189.885 324.908 C 187.840 323.613, 186 323.814, 186 325.333" stroke="none" fill="#37cef4" fill-rule="evenodd"/></svg>